<mxfile host="app.diagrams.net" modified="2024-06-04T12:03:52.042Z" agent="Mozilla/5.0 (Windows NT 10.0; Win64; x64) AppleWebKit/537.36 (KHTML, like Gecko) Chrome/125.0.0.0 Safari/537.36" version="24.4.6" etag="0_FFnY-72jU3ap-pB2WY" type="github">
  <diagram name="PÃ¡gina-1" id="ziZpM8ZNNj0fcw_9IzNg">
    <mxGraphModel>
      <root>
        <mxCell id="0" />
        <mxCell id="1" parent="0" />
      </root>
    </mxGraphModel>
  </diagram>
</mxfile>
